solid model
facet normal 1.52655665885959e-16 0.0 1.0
outer loop
vertex 12.0 4.229949723821846e-15 9.999999999999998
vertex 5.000000000000001 -4.999999999999995 9.999999999999998
vertex 12.0 -4.999999999999995 9.999999999999998
endloop
endfacet
facet normal 1.52655665885959e-16 0.0 1.0
outer loop
vertex 5.000000000000001 -4.999999999999995 9.999999999999998
vertex 1.4099832412739487e-15 -11.999999999999996 10.0
vertex 5.000000000000001 -11.999999999999996 9.999999999999998
endloop
endfacet
facet normal 1.52655665885959e-16 0.0 1.0
outer loop
vertex 1.4099832412739487e-15 -11.999999999999996 10.0
vertex 5.000000000000001 -4.999999999999995 9.999999999999998
vertex 1.4099832412739487e-15 4.229949723821846e-15 10.0
endloop
endfacet
facet normal 1.52655665885959e-16 0.0 1.0
outer loop
vertex 1.4099832412739487e-15 4.229949723821846e-15 10.0
vertex 5.000000000000001 -4.999999999999995 9.999999999999998
vertex 12.0 4.229949723821846e-15 9.999999999999998
endloop
endfacet
facet normal -1.0794385653450954e-16 0.7071067811865474 -0.7071067811865477
outer loop
vertex 5.0 -9.560660171779817 7.06066017177982
vertex 3.73381880969248e-15 -9.799038105676654 6.749999999999999
vertex 3.7812428450797745e-15 -9.560660171779817 7.060660171779821
endloop
endfacet
facet normal -7.632783294297946e-17 0.8660254037844389 -0.4999999999999997
outer loop
vertex 3.73381880969248e-15 -9.799038105676654 6.749999999999999
vertex 5.0 -9.560660171779817 7.06066017177982
vertex 5.0 -9.799038105676654 6.749999999999999
endloop
endfacet
facet normal 1.52655665885959e-16 0.0 1.0
outer loop
vertex 4.999999999999999 -4.999999999999995 1.9999999999999978
vertex 4.999999999999999 -11.999999999999996 1.9999999999999978
vertex 12.0 -4.999999999999995 1.9999999999999978
endloop
endfacet
facet normal 3.951019367409357e-17 0.9659258262890681 0.2588190451025221
outer loop
vertex 5.0 -9.948888739433599 5.611771432346217
vertex 3.5048353108635412e-15 -9.799038105676653 5.25
vertex 3.56006176976687e-15 -9.948888739433599 5.611771432346218
endloop
endfacet
facet normal 7.632783294297965e-17 0.866025403784438 0.500000000000001
outer loop
vertex 3.5048353108635412e-15 -9.799038105676653 5.25
vertex 5.0 -9.948888739433599 5.611771432346217
vertex 5.0 -9.799038105676653 5.249999999999999
endloop
endfacet
facet normal 1.3713932027850383e-31 -1.0 -4.963289722084964e-17
outer loop
vertex 4.999999999999999 -4.999999999999995 1.9999999999999978
vertex 7.200961894323341 -4.999999999999995 5.249999999999999
vertex 5.000000000000001 -4.999999999999995 9.999999999999998
endloop
endfacet
facet normal 1.3713932027850383e-31 -1.0 -4.963289722084964e-17
outer loop
vertex 7.200961894323341 -4.999999999999995 5.249999999999999
vertex 4.999999999999999 -4.999999999999995 1.9999999999999978
vertex 7.439339828220177 -4.999999999999995 4.939339828220178
endloop
endfacet
facet normal 1.3713932027850383e-31 -1.0 -4.963289722084964e-17
outer loop
vertex 7.439339828220177 -4.999999999999995 4.939339828220178
vertex 4.999999999999999 -4.999999999999995 1.9999999999999978
vertex 7.749999999999998 -4.999999999999995 4.70096189432334
endloop
endfacet
facet normal 1.3713932027850383e-31 -1.0 -4.963289722084964e-17
outer loop
vertex 7.749999999999998 -4.999999999999995 4.70096189432334
vertex 4.999999999999999 -4.999999999999995 1.9999999999999978
vertex 12.0 -4.999999999999995 1.9999999999999978
endloop
endfacet
facet normal 1.3713932027850383e-31 -1.0 -4.963289722084964e-17
outer loop
vertex 5.000000000000001 -4.999999999999995 9.999999999999998
vertex 7.200961894323341 -4.999999999999995 5.249999999999999
vertex 7.0511112605663975 -4.999999999999995 5.611771432346218
endloop
endfacet
facet normal 1.3713932027850383e-31 -1.0 -4.963289722084964e-17
outer loop
vertex 5.000000000000001 -4.999999999999995 9.999999999999998
vertex 7.0511112605663975 -4.999999999999995 5.611771432346218
vertex 7.0 -4.999999999999995 5.999999999999999
endloop
endfacet
facet normal 1.3713932027850383e-31 -1.0 -4.963289722084964e-17
outer loop
vertex 7.749999999999998 -4.999999999999995 4.70096189432334
vertex 12.0 -4.999999999999995 1.9999999999999978
vertex 8.111771432346217 -4.999999999999995 4.551111260566397
endloop
endfacet
facet normal 1.3713932027850383e-31 -1.0 -4.963289722084964e-17
outer loop
vertex 8.111771432346217 -4.999999999999995 4.551111260566397
vertex 12.0 -4.999999999999995 1.9999999999999978
vertex 8.499999999999998 -4.999999999999995 4.499999999999999
endloop
endfacet
facet normal 1.3713932027850383e-31 -1.0 -4.963289722084964e-17
outer loop
vertex 8.499999999999998 -4.999999999999995 4.499999999999999
vertex 12.0 -4.999999999999995 1.9999999999999978
vertex 8.88822856765378 -4.999999999999995 4.551111260566397
endloop
endfacet
facet normal 1.3713932027850383e-31 -1.0 -4.963289722084964e-17
outer loop
vertex 8.88822856765378 -4.999999999999995 4.551111260566397
vertex 12.0 -4.999999999999995 1.9999999999999978
vertex 9.249999999999998 -4.999999999999995 4.700961894323341
endloop
endfacet
facet normal 1.3713932027850383e-31 -1.0 -4.963289722084964e-17
outer loop
vertex 9.249999999999998 -4.999999999999995 4.700961894323341
vertex 12.0 -4.999999999999995 1.9999999999999978
vertex 9.56066017177982 -4.999999999999995 4.939339828220178
endloop
endfacet
facet normal 1.3713932027850383e-31 -1.0 -4.963289722084964e-17
outer loop
vertex 9.56066017177982 -4.999999999999995 4.939339828220178
vertex 12.0 -4.999999999999995 1.9999999999999978
vertex 9.799038105676656 -4.999999999999995 5.249999999999999
endloop
endfacet
facet normal 1.3713932027850383e-31 -1.0 -4.963289722084964e-17
outer loop
vertex 9.799038105676656 -4.999999999999995 5.249999999999999
vertex 12.0 -4.999999999999995 1.9999999999999978
vertex 9.948888739433603 -4.999999999999995 5.611771432346218
endloop
endfacet
facet normal 1.3713932027850383e-31 -1.0 -4.963289722084964e-17
outer loop
vertex 9.948888739433603 -4.999999999999995 5.611771432346218
vertex 12.0 -4.999999999999995 1.9999999999999978
vertex 10.0 -4.999999999999995 5.999999999999999
endloop
endfacet
facet normal 1.3713932027850383e-31 -1.0 -4.963289722084964e-17
outer loop
vertex 5.000000000000001 -4.999999999999995 9.999999999999998
vertex 7.75 -4.999999999999995 7.299038105676656
vertex 12.0 -4.999999999999995 9.999999999999998
endloop
endfacet
facet normal 1.3713932027850383e-31 -1.0 -4.963289722084964e-17
outer loop
vertex 7.75 -4.999999999999995 7.299038105676656
vertex 5.000000000000001 -4.999999999999995 9.999999999999998
vertex 7.439339828220179 -4.999999999999995 7.06066017177982
endloop
endfacet
facet normal 1.3713932027850383e-31 -1.0 -4.963289722084964e-17
outer loop
vertex 7.439339828220179 -4.999999999999995 7.06066017177982
vertex 5.000000000000001 -4.999999999999995 9.999999999999998
vertex 7.200961894323341 -4.999999999999995 6.749999999999999
endloop
endfacet
facet normal 1.3713932027850383e-31 -1.0 -4.963289722084964e-17
outer loop
vertex 7.200961894323341 -4.999999999999995 6.749999999999999
vertex 5.000000000000001 -4.999999999999995 9.999999999999998
vertex 7.0511112605663975 -4.999999999999995 6.388228567653779
endloop
endfacet
facet normal 1.3713932027850383e-31 -1.0 -4.963289722084964e-17
outer loop
vertex 7.0511112605663975 -4.999999999999995 6.388228567653779
vertex 5.000000000000001 -4.999999999999995 9.999999999999998
vertex 7.0 -4.999999999999995 5.999999999999999
endloop
endfacet
facet normal 1.3713932027850383e-31 -1.0 -4.963289722084964e-17
outer loop
vertex 12.0 -4.999999999999995 9.999999999999998
vertex 7.75 -4.999999999999995 7.299038105676656
vertex 8.111771432346217 -4.999999999999995 7.448888739433602
endloop
endfacet
facet normal 1.3713932027850383e-31 -1.0 -4.963289722084964e-17
outer loop
vertex 12.0 -4.999999999999995 9.999999999999998
vertex 8.111771432346217 -4.999999999999995 7.448888739433602
vertex 8.5 -4.999999999999995 7.499999999999999
endloop
endfacet
facet normal 1.3713932027850383e-31 -1.0 -4.963289722084964e-17
outer loop
vertex 12.0 -4.999999999999995 9.999999999999998
vertex 8.5 -4.999999999999995 7.499999999999999
vertex 8.88822856765378 -4.999999999999995 7.448888739433602
endloop
endfacet
facet normal 1.3713932027850383e-31 -1.0 -4.963289722084964e-17
outer loop
vertex 12.0 -4.999999999999995 9.999999999999998
vertex 8.88822856765378 -4.999999999999995 7.448888739433602
vertex 9.249999999999998 -4.999999999999995 7.299038105676658
endloop
endfacet
facet normal 1.3713932027850383e-31 -1.0 -4.963289722084964e-17
outer loop
vertex 12.0 -4.999999999999995 9.999999999999998
vertex 9.249999999999998 -4.999999999999995 7.299038105676658
vertex 9.560660171779821 -4.999999999999995 7.06066017177982
endloop
endfacet
facet normal 1.3713932027850383e-31 -1.0 -4.963289722084964e-17
outer loop
vertex 12.0 -4.999999999999995 9.999999999999998
vertex 9.560660171779821 -4.999999999999995 7.06066017177982
vertex 9.799038105676658 -4.999999999999995 6.749999999999999
endloop
endfacet
facet normal 1.3713932027850383e-31 -1.0 -4.963289722084964e-17
outer loop
vertex 12.0 -4.999999999999995 9.999999999999998
vertex 9.799038105676658 -4.999999999999995 6.749999999999999
vertex 9.948888739433603 -4.999999999999995 6.38822856765378
endloop
endfacet
facet normal 1.3713932027850383e-31 -1.0 -4.963289722084964e-17
outer loop
vertex 12.0 -4.999999999999995 9.999999999999998
vertex 9.948888739433603 -4.999999999999995 6.38822856765378
vertex 10.0 -4.999999999999995 5.999999999999999
endloop
endfacet
facet normal 1.3713932027850383e-31 -1.0 -4.963289722084964e-17
outer loop
vertex 12.0 -4.999999999999995 9.999999999999998
vertex 10.0 -4.999999999999995 5.999999999999999
vertex 12.0 -4.999999999999995 1.9999999999999978
endloop
endfacet
facet normal 1.0 0.0 -1.52655665885959e-16
outer loop
vertex 12.0 -4.999999999999995 1.9999999999999978
vertex 12.0 4.229949723821846e-15 9.999999999999998
vertex 12.0 -4.999999999999995 9.999999999999998
endloop
endfacet
facet normal 1.0 0.0 -1.52655665885959e-16
outer loop
vertex 12.0 4.229949723821846e-15 9.999999999999998
vertex 12.0 -4.999999999999995 1.9999999999999978
vertex 12.0 4.229949723821846e-15 -1.4099832412739487e-15
endloop
endfacet
facet normal 1.0 0.0 -1.52655665885959e-16
outer loop
vertex 12.0 4.229949723821846e-15 -1.4099832412739487e-15
vertex 12.0 -4.999999999999995 1.9999999999999978
vertex 12.0 -4.999999999999995 -1.4099832412739487e-15
endloop
endfacet
facet normal 0.25881904510252196 0.0 -0.9659258262890681
outer loop
vertex 8.111771432346217 4.229949723821846e-15 7.448888739433602
vertex 8.5 -4.999999999999995 7.499999999999999
vertex 8.111771432346217 -4.999999999999995 7.448888739433602
endloop
endfacet
facet normal -6.16033380459598e-16 0.0 -1.0
outer loop
vertex 8.5 -4.999999999999995 7.499999999999999
vertex 8.111771432346217 4.229949723821846e-15 7.448888739433602
vertex 8.5 4.229949723821846e-15 7.499999999999999
endloop
endfacet
facet normal 0.7071067811865477 -0.7071067811865475 8.990005960698013e-17
outer loop
vertex 4.999999999999999 -11.999999999999996 -1.4099832412739487e-15
vertex 12.0 -4.999999999999995 1.9999999999999978
vertex 4.999999999999999 -11.999999999999996 1.9999999999999978
endloop
endfacet
facet normal 0.7071067811865477 -0.7071067811865475 8.990005960698013e-17
outer loop
vertex 12.0 -4.999999999999995 1.9999999999999978
vertex 4.999999999999999 -11.999999999999996 -1.4099832412739487e-15
vertex 12.0 -4.999999999999995 -1.4099832412739487e-15
endloop
endfacet
facet normal 0.5000000000000004 0.0 0.8660254037844385
outer loop
vertex 7.749999999999998 4.229949723821846e-15 4.70096189432334
vertex 7.439339828220177 -4.999999999999995 4.939339828220178
vertex 7.749999999999998 -4.999999999999995 4.70096189432334
endloop
endfacet
facet normal 0.7071067811865487 0.0 0.7071067811865465
outer loop
vertex 7.439339828220177 -4.999999999999995 4.939339828220178
vertex 7.749999999999998 4.229949723821846e-15 4.70096189432334
vertex 7.439339828220177 4.229949723821846e-15 4.939339828220178
endloop
endfacet
facet normal 0.2588190451025202 0.0 0.9659258262890684
outer loop
vertex 8.111771432346217 4.229949723821846e-15 4.551111260566397
vertex 7.749999999999998 -4.999999999999995 4.70096189432334
vertex 8.111771432346217 -4.999999999999995 4.551111260566397
endloop
endfacet
facet normal 0.5000000000000004 0.0 0.8660254037844385
outer loop
vertex 7.749999999999998 -4.999999999999995 4.70096189432334
vertex 8.111771432346217 4.229949723821846e-15 4.551111260566397
vertex 7.749999999999998 4.229949723821846e-15 4.70096189432334
endloop
endfacet
facet normal 1.0794385653450968e-16 -0.7071067811865466 0.7071067811865486
outer loop
vertex 5.0 -7.439339828220175 4.939339828220178
vertex 3.421021533244705e-15 -7.749999999999996 4.700961894323343
vertex 5.0 -7.749999999999996 4.700961894323342
endloop
endfacet
facet normal 1.3220368468886997e-16 -0.5000000000000004 0.8660254037844384
outer loop
vertex 3.421021533244705e-15 -7.749999999999996 4.700961894323343
vertex 5.0 -7.439339828220175 4.939339828220178
vertex 3.457411275476246e-15 -7.439339828220175 4.939339828220179
endloop
endfacet
facet normal -3.951019367409331e-17 0.9659258262890684 -0.2588190451025204
outer loop
vertex 5.0 -9.948888739433599 6.388228567653779
vertex 3.61932706027801e-15 -9.999999999999996 6.0
vertex 3.67859235078915e-15 -9.948888739433599 6.38822856765378
endloop
endfacet
facet normal -1.9925562788910703e-17 0.9914448613738104 -0.1305261922200519
outer loop
vertex 3.61932706027801e-15 -9.999999999999996 6.0
vertex 5.0 -9.948888739433599 6.388228567653779
vertex 5.0 -9.999999999999996 6.0
endloop
endfacet
facet normal -1.52655665885959e-16 -2.227777473911726e-16 -1.0
outer loop
vertex 3.848310559106949e-15 -8.499999999999996 7.5
vertex 5.0 -8.888228567653778 7.448888739433602
vertex 3.8405081355909145e-15 -8.888228567653778 7.4488887394336025
endloop
endfacet
facet normal -1.4745405020860285e-16 0.2588190451025221 -0.9659258262890681
outer loop
vertex 5.0 -8.888228567653778 7.448888739433602
vertex 3.848310559106949e-15 -8.499999999999996 7.5
vertex 5.0 -8.499999999999996 7.499999999999999
endloop
endfacet
facet normal -7.632783294297946e-17 0.8660254037844389 -0.4999999999999997
outer loop
vertex 5.0 -9.799038105676654 6.749999999999999
vertex 3.67859235078915e-15 -9.948888739433599 6.38822856765378
vertex 3.73381880969248e-15 -9.799038105676654 6.749999999999999
endloop
endfacet
facet normal -3.951019367409331e-17 0.9659258262890684 -0.2588190451025204
outer loop
vertex 3.67859235078915e-15 -9.948888739433599 6.38822856765378
vertex 5.0 -9.799038105676654 6.749999999999999
vertex 5.0 -9.948888739433599 6.388228567653779
endloop
endfacet
facet normal 0.7071067811865487 0.0 0.7071067811865465
outer loop
vertex 7.439339828220177 -4.999999999999995 4.939339828220178
vertex 7.200961894323341 4.229949723821846e-15 5.249999999999999
vertex 7.200961894323341 -4.999999999999995 5.249999999999999
endloop
endfacet
facet normal 0.8660254037844385 0.0 0.5000000000000003
outer loop
vertex 7.200961894323341 4.229949723821846e-15 5.249999999999999
vertex 7.439339828220177 -4.999999999999995 4.939339828220178
vertex 7.439339828220177 4.229949723821846e-15 4.939339828220178
endloop
endfacet
facet normal 0.8660254037844386 0.0 -0.5000000000000001
outer loop
vertex 7.200961894323341 -4.999999999999995 6.749999999999999
vertex 7.439339828220179 4.229949723821846e-15 7.06066017177982
vertex 7.439339828220179 -4.999999999999995 7.06066017177982
endloop
endfacet
facet normal 0.7071067811865465 0.0 -0.7071067811865487
outer loop
vertex 7.439339828220179 4.229949723821846e-15 7.06066017177982
vertex 7.200961894323341 -4.999999999999995 6.749999999999999
vertex 7.200961894323341 4.229949723821846e-15 6.749999999999999
endloop
endfacet
facet normal -0.25881904510252146 0.0 0.9659258262890681
outer loop
vertex 8.88822856765378 4.229949723821846e-15 4.551111260566397
vertex 8.499999999999998 -4.999999999999995 4.499999999999999
vertex 8.88822856765378 -4.999999999999995 4.551111260566397
endloop
endfacet
facet normal 1.52655665885959e-16 0.0 1.0
outer loop
vertex 8.499999999999998 -4.999999999999995 4.499999999999999
vertex 8.88822856765378 4.229949723821846e-15 4.551111260566397
vertex 8.499999999999998 4.229949723821846e-15 4.499999999999999
endloop
endfacet
facet normal 0.9659258262890685 0.0 -0.2588190451025199
outer loop
vertex 7.0511112605663975 -4.999999999999995 6.388228567653779
vertex 7.200961894323341 4.229949723821846e-15 6.749999999999999
vertex 7.200961894323341 -4.999999999999995 6.749999999999999
endloop
endfacet
facet normal 0.8660254037844386 0.0 -0.5000000000000001
outer loop
vertex 7.200961894323341 4.229949723821846e-15 6.749999999999999
vertex 7.0511112605663975 -4.999999999999995 6.388228567653779
vertex 7.0511112605663975 4.229949723821846e-15 6.388228567653779
endloop
endfacet
facet normal -0.4999999999999989 0.0 -0.8660254037844395
outer loop
vertex 9.249999999999998 4.229949723821846e-15 7.299038105676658
vertex 9.560660171779821 -4.999999999999995 7.06066017177982
vertex 9.249999999999998 -4.999999999999995 7.299038105676658
endloop
endfacet
facet normal -0.7071067811865474 0.0 -0.7071067811865477
outer loop
vertex 9.560660171779821 -4.999999999999995 7.06066017177982
vertex 9.249999999999998 4.229949723821846e-15 7.299038105676658
vertex 9.560660171779821 4.229949723821846e-15 7.06066017177982
endloop
endfacet
facet normal 0.7071067811865465 0.0 -0.7071067811865487
outer loop
vertex 7.439339828220179 4.229949723821846e-15 7.06066017177982
vertex 7.75 -4.999999999999995 7.299038105676656
vertex 7.439339828220179 -4.999999999999995 7.06066017177982
endloop
endfacet
facet normal 0.5000000000000009 0.0 -0.8660254037844382
outer loop
vertex 7.75 -4.999999999999995 7.299038105676656
vertex 7.439339828220179 4.229949723821846e-15 7.06066017177982
vertex 7.75 4.229949723821846e-15 7.299038105676656
endloop
endfacet
facet normal 1.3220368468886997e-16 -0.5000000000000004 0.8660254037844384
outer loop
vertex 5.0 -7.749999999999996 4.700961894323342
vertex 3.3981459849651057e-15 -8.111771432346215 4.5511112605663975
vertex 5.0 -8.111771432346215 4.5511112605663975
endloop
endfacet
facet normal 1.4745405020860285e-16 -0.2588190451025216 0.9659258262890681
outer loop
vertex 3.3981459849651057e-15 -8.111771432346215 4.5511112605663975
vertex 5.0 -7.749999999999996 4.700961894323342
vertex 3.421021533244705e-15 -7.749999999999996 4.700961894323343
endloop
endfacet
facet normal -1.0 0.0 1.52655665885959e-16
outer loop
vertex 1.4099832412739487e-15 4.229949723821846e-15 10.0
vertex 3.817632587311315e-15 -7.749999999999996 7.299038105676658
vertex 1.4099832412739487e-15 -11.999999999999996 10.0
endloop
endfacet
facet normal -1.0 0.0 1.52655665885959e-16
outer loop
vertex 3.817632587311315e-15 -7.749999999999996 7.299038105676658
vertex 1.4099832412739487e-15 4.229949723821846e-15 10.0
vertex 3.7812428450797745e-15 -7.439339828220175 7.060660171779821
endloop
endfacet
facet normal -1.0 0.0 1.52655665885959e-16
outer loop
vertex 3.7812428450797745e-15 -7.439339828220175 7.060660171779821
vertex 1.4099832412739487e-15 4.229949723821846e-15 10.0
vertex -1.1657341758564122e-16 4.229949723821846e-15 0.0
endloop
endfacet
facet normal -1.0 0.0 1.52655665885959e-16
outer loop
vertex 1.4099832412739487e-15 -11.999999999999996 10.0
vertex 3.817632587311315e-15 -7.749999999999996 7.299038105676658
vertex 3.8405081355909145e-15 -8.111771432346215 7.4488887394336025
endloop
endfacet
facet normal -1.0 0.0 1.52655665885959e-16
outer loop
vertex 1.4099832412739487e-15 -11.999999999999996 10.0
vertex 3.8405081355909145e-15 -8.111771432346215 7.4488887394336025
vertex 3.848310559106949e-15 -8.499999999999996 7.5
endloop
endfacet
facet normal -1.0 0.0 1.52655665885959e-16
outer loop
vertex 3.7812428450797745e-15 -7.439339828220175 7.060660171779821
vertex -1.1657341758564122e-16 4.229949723821846e-15 0.0
vertex 3.73381880969248e-15 -7.200961894323338 6.75
endloop
endfacet
facet normal -1.0 0.0 1.52655665885959e-16
outer loop
vertex 3.73381880969248e-15 -7.200961894323338 6.75
vertex -1.1657341758564122e-16 4.229949723821846e-15 0.0
vertex 3.6785923507891505e-15 -7.051111260566393 6.3882285676537816
endloop
endfacet
facet normal -1.0 0.0 1.52655665885959e-16
outer loop
vertex 3.6785923507891505e-15 -7.051111260566393 6.3882285676537816
vertex -1.1657341758564122e-16 4.229949723821846e-15 0.0
vertex 3.61932706027801e-15 -6.999999999999996 6.0
endloop
endfacet
facet normal -1.0 0.0 1.52655665885959e-16
outer loop
vertex 3.61932706027801e-15 -6.999999999999996 6.0
vertex -1.1657341758564122e-16 4.229949723821846e-15 0.0
vertex 3.56006176976687e-15 -7.051111260566393 5.611771432346219
endloop
endfacet
facet normal -1.0 0.0 1.52655665885959e-16
outer loop
vertex 3.56006176976687e-15 -7.051111260566393 5.611771432346219
vertex -1.1657341758564122e-16 4.229949723821846e-15 0.0
vertex 3.5048353108635412e-15 -7.200961894323337 5.25
endloop
endfacet
facet normal -1.0 0.0 1.52655665885959e-16
outer loop
vertex 3.5048353108635412e-15 -7.200961894323337 5.25
vertex -1.1657341758564122e-16 4.229949723821846e-15 0.0
vertex 3.457411275476246e-15 -7.439339828220175 4.939339828220179
endloop
endfacet
facet normal -1.0 0.0 1.52655665885959e-16
outer loop
vertex 3.457411275476246e-15 -7.439339828220175 4.939339828220179
vertex -1.1657341758564122e-16 4.229949723821846e-15 0.0
vertex 3.421021533244705e-15 -7.749999999999996 4.700961894323343
endloop
endfacet
facet normal -1.0 0.0 1.52655665885959e-16
outer loop
vertex 3.421021533244705e-15 -7.749999999999996 4.700961894323343
vertex -1.1657341758564122e-16 4.229949723821846e-15 0.0
vertex 3.3981459849651057e-15 -8.111771432346215 4.5511112605663975
endloop
endfacet
facet normal -1.0 0.0 1.52655665885959e-16
outer loop
vertex 3.3981459849651057e-15 -8.111771432346215 4.5511112605663975
vertex -1.1657341758564122e-16 4.229949723821846e-15 0.0
vertex 3.3903435614490715e-15 -8.499999999999996 4.5
endloop
endfacet
facet normal -1.0 0.0 1.52655665885959e-16
outer loop
vertex 1.4099832412739487e-15 -11.999999999999996 10.0
vertex 3.67859235078915e-15 -9.948888739433599 6.38822856765378
vertex -1.1657341758564122e-16 -11.999999999999996 0.0
endloop
endfacet
facet normal -1.0 0.0 1.52655665885959e-16
outer loop
vertex 3.67859235078915e-15 -9.948888739433599 6.38822856765378
vertex 1.4099832412739487e-15 -11.999999999999996 10.0
vertex 3.73381880969248e-15 -9.799038105676654 6.749999999999999
endloop
endfacet
facet normal -1.0 0.0 1.52655665885959e-16
outer loop
vertex 3.73381880969248e-15 -9.799038105676654 6.749999999999999
vertex 1.4099832412739487e-15 -11.999999999999996 10.0
vertex 3.7812428450797745e-15 -9.560660171779817 7.060660171779821
endloop
endfacet
facet normal -1.0 0.0 1.52655665885959e-16
outer loop
vertex 3.7812428450797745e-15 -9.560660171779817 7.060660171779821
vertex 1.4099832412739487e-15 -11.999999999999996 10.0
vertex 3.817632587311315e-15 -9.249999999999996 7.299038105676658
endloop
endfacet
facet normal -1.0 0.0 1.52655665885959e-16
outer loop
vertex 3.817632587311315e-15 -9.249999999999996 7.299038105676658
vertex 1.4099832412739487e-15 -11.999999999999996 10.0
vertex 3.8405081355909145e-15 -8.888228567653778 7.4488887394336025
endloop
endfacet
facet normal -1.0 0.0 1.52655665885959e-16
outer loop
vertex 3.8405081355909145e-15 -8.888228567653778 7.4488887394336025
vertex 1.4099832412739487e-15 -11.999999999999996 10.0
vertex 3.848310559106949e-15 -8.499999999999996 7.5
endloop
endfacet
facet normal -1.0 0.0 1.52655665885959e-16
outer loop
vertex -1.1657341758564122e-16 -11.999999999999996 0.0
vertex 3.67859235078915e-15 -9.948888739433599 6.38822856765378
vertex 3.61932706027801e-15 -9.999999999999996 6.0
endloop
endfacet
facet normal -1.0 0.0 1.52655665885959e-16
outer loop
vertex -1.1657341758564122e-16 -11.999999999999996 0.0
vertex 3.61932706027801e-15 -9.999999999999996 6.0
vertex 3.56006176976687e-15 -9.948888739433599 5.611771432346218
endloop
endfacet
facet normal -1.0 0.0 1.52655665885959e-16
outer loop
vertex -1.1657341758564122e-16 -11.999999999999996 0.0
vertex 3.56006176976687e-15 -9.948888739433599 5.611771432346218
vertex 3.5048353108635412e-15 -9.799038105676653 5.25
endloop
endfacet
facet normal -1.0 0.0 1.52655665885959e-16
outer loop
vertex -1.1657341758564122e-16 -11.999999999999996 0.0
vertex 3.5048353108635412e-15 -9.799038105676653 5.25
vertex 3.457411275476246e-15 -9.560660171779817 4.939339828220179
endloop
endfacet
facet normal -1.0 0.0 1.52655665885959e-16
outer loop
vertex -1.1657341758564122e-16 -11.999999999999996 0.0
vertex 3.457411275476246e-15 -9.560660171779817 4.939339828220179
vertex 3.421021533244705e-15 -9.249999999999996 4.700961894323341
endloop
endfacet
facet normal -1.0 0.0 1.52655665885959e-16
outer loop
vertex -1.1657341758564122e-16 -11.999999999999996 0.0
vertex 3.421021533244705e-15 -9.249999999999996 4.700961894323341
vertex 3.3981459849651057e-15 -8.888228567653776 4.5511112605663975
endloop
endfacet
facet normal -1.0 0.0 1.52655665885959e-16
outer loop
vertex -1.1657341758564122e-16 -11.999999999999996 0.0
vertex 3.3981459849651057e-15 -8.888228567653776 4.5511112605663975
vertex 3.3903435614490715e-15 -8.499999999999996 4.5
endloop
endfacet
facet normal -1.0 0.0 1.52655665885959e-16
outer loop
vertex -1.1657341758564122e-16 -11.999999999999996 0.0
vertex 3.3903435614490715e-15 -8.499999999999996 4.5
vertex -1.1657341758564122e-16 4.229949723821846e-15 0.0
endloop
endfacet
facet normal 1.52655665885959e-16 0.0 1.0
outer loop
vertex 8.499999999999998 4.229949723821846e-15 4.499999999999999
vertex 8.111771432346217 -4.999999999999995 4.551111260566397
vertex 8.499999999999998 -4.999999999999995 4.499999999999999
endloop
endfacet
facet normal 0.2588190451025202 0.0 0.9659258262890684
outer loop
vertex 8.111771432346217 -4.999999999999995 4.551111260566397
vertex 8.499999999999998 4.229949723821846e-15 4.499999999999999
vertex 8.111771432346217 4.229949723821846e-15 4.551111260566397
endloop
endfacet
facet normal 1.0 0.0 -1.52655665885959e-16
outer loop
vertex 5.000000000000001 -11.999999999999996 9.999999999999998
vertex 5.0 -9.249999999999996 7.299038105676656
vertex 5.000000000000001 -4.999999999999995 9.999999999999998
endloop
endfacet
facet normal 1.0 0.0 -1.52655665885959e-16
outer loop
vertex 5.0 -9.249999999999996 7.299038105676656
vertex 5.000000000000001 -11.999999999999996 9.999999999999998
vertex 5.0 -9.560660171779817 7.06066017177982
endloop
endfacet
facet normal 1.0 0.0 -1.52655665885959e-16
outer loop
vertex 5.0 -9.560660171779817 7.06066017177982
vertex 5.000000000000001 -11.999999999999996 9.999999999999998
vertex 5.0 -9.799038105676654 6.749999999999999
endloop
endfacet
facet normal 1.0 0.0 -1.52655665885959e-16
outer loop
vertex 5.0 -9.799038105676654 6.749999999999999
vertex 5.000000000000001 -11.999999999999996 9.999999999999998
vertex 4.999999999999999 -11.999999999999996 1.9999999999999978
endloop
endfacet
facet normal 1.0 0.0 -1.52655665885959e-16
outer loop
vertex 5.000000000000001 -4.999999999999995 9.999999999999998
vertex 5.0 -9.249999999999996 7.299038105676656
vertex 5.0 -8.888228567653778 7.448888739433602
endloop
endfacet
facet normal 1.0 0.0 -1.52655665885959e-16
outer loop
vertex 5.000000000000001 -4.999999999999995 9.999999999999998
vertex 5.0 -8.888228567653778 7.448888739433602
vertex 5.0 -8.499999999999996 7.499999999999999
endloop
endfacet
facet normal 1.0 0.0 -1.52655665885959e-16
outer loop
vertex 5.0 -9.799038105676654 6.749999999999999
vertex 4.999999999999999 -11.999999999999996 1.9999999999999978
vertex 5.0 -9.948888739433599 6.388228567653779
endloop
endfacet
facet normal 1.0 0.0 -1.52655665885959e-16
outer loop
vertex 5.0 -9.948888739433599 6.388228567653779
vertex 4.999999999999999 -11.999999999999996 1.9999999999999978
vertex 5.0 -9.999999999999996 6.0
endloop
endfacet
facet normal 1.0 0.0 -1.52655665885959e-16
outer loop
vertex 5.0 -9.999999999999996 6.0
vertex 4.999999999999999 -11.999999999999996 1.9999999999999978
vertex 5.0 -9.948888739433599 5.611771432346217
endloop
endfacet
facet normal 1.0 0.0 -1.52655665885959e-16
outer loop
vertex 5.0 -9.948888739433599 5.611771432346217
vertex 4.999999999999999 -11.999999999999996 1.9999999999999978
vertex 5.0 -9.799038105676653 5.249999999999999
endloop
endfacet
facet normal 1.0 0.0 -1.52655665885959e-16
outer loop
vertex 5.0 -9.799038105676653 5.249999999999999
vertex 4.999999999999999 -11.999999999999996 1.9999999999999978
vertex 5.0 -9.560660171779817 4.939339828220178
endloop
endfacet
facet normal 1.0 0.0 -1.52655665885959e-16
outer loop
vertex 5.0 -9.560660171779817 4.939339828220178
vertex 4.999999999999999 -11.999999999999996 1.9999999999999978
vertex 5.0 -9.249999999999996 4.700961894323341
endloop
endfacet
facet normal 1.0 0.0 -1.52655665885959e-16
outer loop
vertex 5.0 -9.249999999999996 4.700961894323341
vertex 4.999999999999999 -11.999999999999996 1.9999999999999978
vertex 5.0 -8.888228567653776 4.5511112605663975
endloop
endfacet
facet normal 1.0 0.0 -1.52655665885959e-16
outer loop
vertex 5.0 -8.888228567653776 4.5511112605663975
vertex 4.999999999999999 -11.999999999999996 1.9999999999999978
vertex 5.0 -8.499999999999996 4.499999999999999
endloop
endfacet
facet normal 1.0 0.0 -1.52655665885959e-16
outer loop
vertex 5.000000000000001 -4.999999999999995 9.999999999999998
vertex 5.0 -7.200961894323338 6.749999999999999
vertex 4.999999999999999 -4.999999999999995 1.9999999999999978
endloop
endfacet
facet normal 1.0 0.0 -1.52655665885959e-16
outer loop
vertex 5.0 -7.200961894323338 6.749999999999999
vertex 5.000000000000001 -4.999999999999995 9.999999999999998
vertex 5.0 -7.439339828220175 7.06066017177982
endloop
endfacet
facet normal 1.0 0.0 -1.52655665885959e-16
outer loop
vertex 5.0 -7.439339828220175 7.06066017177982
vertex 5.000000000000001 -4.999999999999995 9.999999999999998
vertex 5.0 -7.749999999999996 7.299038105676658
endloop
endfacet
facet normal 1.0 0.0 -1.52655665885959e-16
outer loop
vertex 5.0 -7.749999999999996 7.299038105676658
vertex 5.000000000000001 -4.999999999999995 9.999999999999998
vertex 5.0 -8.111771432346215 7.448888739433602
endloop
endfacet
facet normal 1.0 0.0 -1.52655665885959e-16
outer loop
vertex 5.0 -8.111771432346215 7.448888739433602
vertex 5.000000000000001 -4.999999999999995 9.999999999999998
vertex 5.0 -8.499999999999996 7.499999999999999
endloop
endfacet
facet normal 1.0 0.0 -1.52655665885959e-16
outer loop
vertex 4.999999999999999 -4.999999999999995 1.9999999999999978
vertex 5.0 -7.200961894323338 6.749999999999999
vertex 5.0 -7.051111260566393 6.3882285676537816
endloop
endfacet
facet normal 1.0 0.0 -1.52655665885959e-16
outer loop
vertex 4.999999999999999 -4.999999999999995 1.9999999999999978
vertex 5.0 -7.051111260566393 6.3882285676537816
vertex 5.0 -6.999999999999996 6.0
endloop
endfacet
facet normal 1.0 0.0 -1.52655665885959e-16
outer loop
vertex 4.999999999999999 -4.999999999999995 1.9999999999999978
vertex 5.0 -6.999999999999996 6.0
vertex 5.0 -7.051111260566393 5.6117714323462184
endloop
endfacet
facet normal 1.0 0.0 -1.52655665885959e-16
outer loop
vertex 4.999999999999999 -4.999999999999995 1.9999999999999978
vertex 5.0 -7.051111260566393 5.6117714323462184
vertex 5.0 -7.200961894323337 5.249999999999999
endloop
endfacet
facet normal 1.0 0.0 -1.52655665885959e-16
outer loop
vertex 4.999999999999999 -4.999999999999995 1.9999999999999978
vertex 5.0 -7.200961894323337 5.249999999999999
vertex 5.0 -7.439339828220175 4.939339828220178
endloop
endfacet
facet normal 1.0 0.0 -1.52655665885959e-16
outer loop
vertex 4.999999999999999 -4.999999999999995 1.9999999999999978
vertex 5.0 -7.439339828220175 4.939339828220178
vertex 5.0 -7.749999999999996 4.700961894323342
endloop
endfacet
facet normal 1.0 0.0 -1.52655665885959e-16
outer loop
vertex 4.999999999999999 -4.999999999999995 1.9999999999999978
vertex 5.0 -7.749999999999996 4.700961894323342
vertex 5.0 -8.111771432346215 4.5511112605663975
endloop
endfacet
facet normal 1.0 0.0 -1.52655665885959e-16
outer loop
vertex 4.999999999999999 -4.999999999999995 1.9999999999999978
vertex 5.0 -8.111771432346215 4.5511112605663975
vertex 5.0 -8.499999999999996 4.499999999999999
endloop
endfacet
facet normal 1.0 0.0 -1.52655665885959e-16
outer loop
vertex 4.999999999999999 -4.999999999999995 1.9999999999999978
vertex 5.0 -8.499999999999996 4.499999999999999
vertex 4.999999999999999 -11.999999999999996 1.9999999999999978
endloop
endfacet
facet normal 1.3220368468887004e-16 0.49999999999999967 0.8660254037844389
outer loop
vertex 5.0 -9.249999999999996 4.700961894323341
vertex 3.457411275476246e-15 -9.560660171779817 4.939339828220179
vertex 5.0 -9.560660171779817 4.939339828220178
endloop
endfacet
facet normal 1.0794385653450937e-16 0.7071067811865486 0.7071067811865466
outer loop
vertex 3.457411275476246e-15 -9.560660171779817 4.939339828220179
vertex 5.0 -9.249999999999996 4.700961894323341
vertex 3.421021533244705e-15 -9.249999999999996 4.700961894323341
endloop
endfacet
facet normal -1.4745405020860285e-16 0.2588190451025221 -0.9659258262890681
outer loop
vertex 3.8405081355909145e-15 -8.888228567653778 7.4488887394336025
vertex 5.0 -9.249999999999996 7.299038105676656
vertex 3.817632587311315e-15 -9.249999999999996 7.299038105676658
endloop
endfacet
facet normal -1.3220368468886992e-16 0.500000000000001 -0.866025403784438
outer loop
vertex 5.0 -9.249999999999996 7.299038105676656
vertex 3.8405081355909145e-15 -8.888228567653778 7.4488887394336025
vertex 5.0 -8.888228567653778 7.448888739433602
endloop
endfacet
facet normal 1.52655665885959e-16 2.4059996718246644e-16 1.0
outer loop
vertex 5.0 -8.499999999999996 4.499999999999999
vertex 3.3981459849651057e-15 -8.888228567653776 4.5511112605663975
vertex 5.0 -8.888228567653776 4.5511112605663975
endloop
endfacet
facet normal 1.4745405020860295e-16 0.25881904510251963 0.9659258262890688
outer loop
vertex 3.3981459849651057e-15 -8.888228567653776 4.5511112605663975
vertex 5.0 -8.499999999999996 4.499999999999999
vertex 3.3903435614490715e-15 -8.499999999999996 4.5
endloop
endfacet
facet normal 1.0794385653450968e-16 -0.7071067811865466 0.7071067811865486
outer loop
vertex 5.0 -7.439339828220175 4.939339828220178
vertex 3.5048353108635412e-15 -7.200961894323337 5.25
vertex 3.457411275476246e-15 -7.439339828220175 4.939339828220179
endloop
endfacet
facet normal 7.632783294297955e-17 -0.8660254037844386 0.5000000000000003
outer loop
vertex 3.5048353108635412e-15 -7.200961894323337 5.25
vertex 5.0 -7.439339828220175 4.939339828220178
vertex 5.0 -7.200961894323337 5.249999999999999
endloop
endfacet
facet normal -1.992556278891067e-17 -0.9914448613738105 -0.13052619222005168
outer loop
vertex 5.0 -6.999999999999996 6.0
vertex 3.6785923507891505e-15 -7.051111260566393 6.3882285676537816
vertex 3.61932706027801e-15 -6.999999999999996 6.0
endloop
endfacet
facet normal -3.9510193674093495e-17 -0.9659258262890681 -0.2588190451025216
outer loop
vertex 3.6785923507891505e-15 -7.051111260566393 6.3882285676537816
vertex 5.0 -6.999999999999996 6.0
vertex 5.0 -7.051111260566393 6.3882285676537816
endloop
endfacet
facet normal -0.8660254037844385 0.0 -0.5000000000000003
outer loop
vertex 9.799038105676658 4.229949723821846e-15 6.749999999999999
vertex 9.560660171779821 -4.999999999999995 7.06066017177982
vertex 9.560660171779821 4.229949723821846e-15 7.06066017177982
endloop
endfacet
facet normal -0.7071067811865474 0.0 -0.7071067811865477
outer loop
vertex 9.560660171779821 -4.999999999999995 7.06066017177982
vertex 9.799038105676658 4.229949723821846e-15 6.749999999999999
vertex 9.799038105676658 -4.999999999999995 6.749999999999999
endloop
endfacet
facet normal -0.7071067811865475 0.0 0.7071067811865477
outer loop
vertex 9.56066017177982 4.229949723821846e-15 4.939339828220178
vertex 9.799038105676656 -4.999999999999995 5.249999999999999
vertex 9.799038105676656 4.229949723821846e-15 5.249999999999999
endloop
endfacet
facet normal -0.8660254037844385 0.0 0.5000000000000007
outer loop
vertex 9.799038105676656 -4.999999999999995 5.249999999999999
vertex 9.56066017177982 4.229949723821846e-15 4.939339828220178
vertex 9.56066017177982 -4.999999999999995 4.939339828220178
endloop
endfacet
facet normal -1.0794385653450945e-16 -0.707106781186548 -0.707106781186547
outer loop
vertex 3.7812428450797745e-15 -7.439339828220175 7.060660171779821
vertex 5.0 -7.749999999999996 7.299038105676658
vertex 3.817632587311315e-15 -7.749999999999996 7.299038105676658
endloop
endfacet
facet normal -1.3220368468886997e-16 -0.5000000000000004 -0.8660254037844384
outer loop
vertex 5.0 -7.749999999999996 7.299038105676658
vertex 3.7812428450797745e-15 -7.439339828220175 7.060660171779821
vertex 5.0 -7.439339828220175 7.06066017177982
endloop
endfacet
facet normal 3.9510193674093254e-17 -0.9659258262890686 0.2588190451025201
outer loop
vertex 5.0 -7.051111260566393 5.6117714323462184
vertex 3.61932706027801e-15 -6.999999999999996 6.0
vertex 3.56006176976687e-15 -7.051111260566393 5.611771432346219
endloop
endfacet
facet normal 1.992556278891067e-17 -0.9914448613738105 0.13052619222005168
outer loop
vertex 3.61932706027801e-15 -6.999999999999996 6.0
vertex 5.0 -7.051111260566393 5.6117714323462184
vertex 5.0 -6.999999999999996 6.0
endloop
endfacet
facet normal -0.9659258262890681 0.0 -0.25881904510252135
outer loop
vertex 9.948888739433603 4.229949723821846e-15 6.38822856765378
vertex 9.799038105676658 -4.999999999999995 6.749999999999999
vertex 9.799038105676658 4.229949723821846e-15 6.749999999999999
endloop
endfacet
facet normal -0.8660254037844385 0.0 -0.5000000000000003
outer loop
vertex 9.799038105676658 -4.999999999999995 6.749999999999999
vertex 9.948888739433603 4.229949723821846e-15 6.38822856765378
vertex 9.948888739433603 -4.999999999999995 6.38822856765378
endloop
endfacet
facet normal 1.9925562788910602e-17 0.9914448613738106 0.13052619222005124
outer loop
vertex 5.0 -9.999999999999996 6.0
vertex 3.56006176976687e-15 -9.948888739433599 5.611771432346218
vertex 3.61932706027801e-15 -9.999999999999996 6.0
endloop
endfacet
facet normal 3.951019367409357e-17 0.9659258262890681 0.2588190451025221
outer loop
vertex 3.56006176976687e-15 -9.948888739433599 5.611771432346218
vertex 5.0 -9.999999999999996 6.0
vertex 5.0 -9.948888739433599 5.611771432346217
endloop
endfacet
facet normal 1.4745405020860295e-16 0.25881904510251963 0.9659258262890688
outer loop
vertex 5.0 -8.888228567653776 4.5511112605663975
vertex 3.421021533244705e-15 -9.249999999999996 4.700961894323341
vertex 5.0 -9.249999999999996 4.700961894323341
endloop
endfacet
facet normal 1.3220368468887004e-16 0.49999999999999967 0.8660254037844389
outer loop
vertex 3.421021533244705e-15 -9.249999999999996 4.700961894323341
vertex 5.0 -8.888228567653776 4.5511112605663975
vertex 3.3981459849651057e-15 -8.888228567653776 4.5511112605663975
endloop
endfacet
facet normal -0.2588190451025204 0.0 -0.9659258262890684
outer loop
vertex 8.88822856765378 4.229949723821846e-15 7.448888739433602
vertex 9.249999999999998 -4.999999999999995 7.299038105676658
vertex 8.88822856765378 -4.999999999999995 7.448888739433602
endloop
endfacet
facet normal -0.4999999999999989 0.0 -0.8660254037844395
outer loop
vertex 9.249999999999998 -4.999999999999995 7.299038105676658
vertex 8.88822856765378 4.229949723821846e-15 7.448888739433602
vertex 9.249999999999998 4.229949723821846e-15 7.299038105676658
endloop
endfacet
facet normal 1.4745405020860285e-16 -0.2588190451025216 0.9659258262890681
outer loop
vertex 5.0 -8.111771432346215 4.5511112605663975
vertex 3.3903435614490715e-15 -8.499999999999996 4.5
vertex 5.0 -8.499999999999996 4.499999999999999
endloop
endfacet
facet normal 1.52655665885959e-16 2.4059996718246644e-16 1.0
outer loop
vertex 3.3903435614490715e-15 -8.499999999999996 4.5
vertex 5.0 -8.111771432346215 4.5511112605663975
vertex 3.3981459849651057e-15 -8.111771432346215 4.5511112605663975
endloop
endfacet
facet normal -1.474540502086029e-16 -0.25881904510252085 -0.9659258262890684
outer loop
vertex 3.8405081355909145e-15 -8.111771432346215 7.4488887394336025
vertex 5.0 -8.499999999999996 7.499999999999999
vertex 3.848310559106949e-15 -8.499999999999996 7.5
endloop
endfacet
facet normal -1.52655665885959e-16 -2.227777473911726e-16 -1.0
outer loop
vertex 5.0 -8.499999999999996 7.499999999999999
vertex 3.8405081355909145e-15 -8.111771432346215 7.4488887394336025
vertex 5.0 -8.111771432346215 7.448888739433602
endloop
endfacet
facet normal -0.8660254037844385 0.0 0.5000000000000007
outer loop
vertex 9.799038105676656 4.229949723821846e-15 5.249999999999999
vertex 9.948888739433603 -4.999999999999995 5.611771432346218
vertex 9.948888739433603 4.229949723821846e-15 5.611771432346218
endloop
endfacet
facet normal -0.9659258262890681 0.0 0.2588190451025218
outer loop
vertex 9.948888739433603 -4.999999999999995 5.611771432346218
vertex 9.799038105676656 4.229949723821846e-15 5.249999999999999
vertex 9.799038105676656 -4.999999999999995 5.249999999999999
endloop
endfacet
facet normal 0.5000000000000009 0.0 -0.8660254037844382
outer loop
vertex 7.75 4.229949723821846e-15 7.299038105676656
vertex 8.111771432346217 -4.999999999999995 7.448888739433602
vertex 7.75 -4.999999999999995 7.299038105676656
endloop
endfacet
facet normal 0.25881904510252196 0.0 -0.9659258262890681
outer loop
vertex 8.111771432346217 -4.999999999999995 7.448888739433602
vertex 7.75 4.229949723821846e-15 7.299038105676656
vertex 8.111771432346217 4.229949723821846e-15 7.448888739433602
endloop
endfacet
facet normal -1.3220368468886992e-16 0.500000000000001 -0.866025403784438
outer loop
vertex 3.817632587311315e-15 -9.249999999999996 7.299038105676658
vertex 5.0 -9.560660171779817 7.06066017177982
vertex 3.7812428450797745e-15 -9.560660171779817 7.060660171779821
endloop
endfacet
facet normal -1.0794385653450954e-16 0.7071067811865474 -0.7071067811865477
outer loop
vertex 5.0 -9.560660171779817 7.06066017177982
vertex 3.817632587311315e-15 -9.249999999999996 7.299038105676658
vertex 5.0 -9.249999999999996 7.299038105676656
endloop
endfacet
facet normal 0.9914448613738104 0.0 -0.13052619222005205
outer loop
vertex 7.0 -4.999999999999995 5.999999999999999
vertex 7.0511112605663975 4.229949723821846e-15 6.388228567653779
vertex 7.0511112605663975 -4.999999999999995 6.388228567653779
endloop
endfacet
facet normal 0.9659258262890685 0.0 -0.2588190451025199
outer loop
vertex 7.0511112605663975 4.229949723821846e-15 6.388228567653779
vertex 7.0 -4.999999999999995 5.999999999999999
vertex 7.0 4.229949723821846e-15 5.999999999999999
endloop
endfacet
facet normal -0.9659258262890681 0.0 0.2588190451025218
outer loop
vertex 9.948888739433603 4.229949723821846e-15 5.611771432346218
vertex 10.0 -4.999999999999995 5.999999999999999
vertex 10.0 4.229949723821846e-15 5.999999999999999
endloop
endfacet
facet normal -0.9914448613738105 -0.0 0.13052619222005182
outer loop
vertex 10.0 -4.999999999999995 5.999999999999999
vertex 9.948888739433603 4.229949723821846e-15 5.611771432346218
vertex 9.948888739433603 -4.999999999999995 5.611771432346218
endloop
endfacet
facet normal 0.8660254037844385 0.0 0.5000000000000003
outer loop
vertex 7.200961894323341 -4.999999999999995 5.249999999999999
vertex 7.0511112605663975 4.229949723821846e-15 5.611771432346218
vertex 7.0511112605663975 -4.999999999999995 5.611771432346218
endloop
endfacet
facet normal 0.9659258262890681 0.0 0.25881904510252146
outer loop
vertex 7.0511112605663975 4.229949723821846e-15 5.611771432346218
vertex 7.200961894323341 -4.999999999999995 5.249999999999999
vertex 7.200961894323341 4.229949723821846e-15 5.249999999999999
endloop
endfacet
facet normal -0.5000000000000003 0.0 0.8660254037844385
outer loop
vertex 9.249999999999998 4.229949723821846e-15 4.700961894323341
vertex 8.88822856765378 -4.999999999999995 4.551111260566397
vertex 9.249999999999998 -4.999999999999995 4.700961894323341
endloop
endfacet
facet normal -0.25881904510252146 0.0 0.9659258262890681
outer loop
vertex 8.88822856765378 -4.999999999999995 4.551111260566397
vertex 9.249999999999998 4.229949723821846e-15 4.700961894323341
vertex 8.88822856765378 4.229949723821846e-15 4.551111260566397
endloop
endfacet
facet normal 0.0 1.0 0.0
outer loop
vertex 1.4099832412739487e-15 4.229949723821846e-15 10.0
vertex 7.439339828220179 4.229949723821846e-15 7.06066017177982
vertex -1.1657341758564122e-16 4.229949723821846e-15 0.0
endloop
endfacet
facet normal 0.0 1.0 0.0
outer loop
vertex 7.439339828220179 4.229949723821846e-15 7.06066017177982
vertex 1.4099832412739487e-15 4.229949723821846e-15 10.0
vertex 7.75 4.229949723821846e-15 7.299038105676656
endloop
endfacet
facet normal 0.0 1.0 0.0
outer loop
vertex 7.75 4.229949723821846e-15 7.299038105676656
vertex 1.4099832412739487e-15 4.229949723821846e-15 10.0
vertex 12.0 4.229949723821846e-15 9.999999999999998
endloop
endfacet
facet normal 0.0 1.0 0.0
outer loop
vertex -1.1657341758564122e-16 4.229949723821846e-15 0.0
vertex 7.439339828220179 4.229949723821846e-15 7.06066017177982
vertex 7.200961894323341 4.229949723821846e-15 6.749999999999999
endloop
endfacet
facet normal 0.0 1.0 0.0
outer loop
vertex -1.1657341758564122e-16 4.229949723821846e-15 0.0
vertex 7.200961894323341 4.229949723821846e-15 6.749999999999999
vertex 7.0511112605663975 4.229949723821846e-15 6.388228567653779
endloop
endfacet
facet normal 0.0 1.0 0.0
outer loop
vertex -1.1657341758564122e-16 4.229949723821846e-15 0.0
vertex 7.0511112605663975 4.229949723821846e-15 6.388228567653779
vertex 7.0 4.229949723821846e-15 5.999999999999999
endloop
endfacet
facet normal 0.0 1.0 0.0
outer loop
vertex 7.75 4.229949723821846e-15 7.299038105676656
vertex 12.0 4.229949723821846e-15 9.999999999999998
vertex 8.111771432346217 4.229949723821846e-15 7.448888739433602
endloop
endfacet
facet normal 0.0 1.0 0.0
outer loop
vertex 8.111771432346217 4.229949723821846e-15 7.448888739433602
vertex 12.0 4.229949723821846e-15 9.999999999999998
vertex 8.5 4.229949723821846e-15 7.499999999999999
endloop
endfacet
facet normal 0.0 1.0 0.0
outer loop
vertex 8.5 4.229949723821846e-15 7.499999999999999
vertex 12.0 4.229949723821846e-15 9.999999999999998
vertex 8.88822856765378 4.229949723821846e-15 7.448888739433602
endloop
endfacet
facet normal 0.0 1.0 0.0
outer loop
vertex 8.88822856765378 4.229949723821846e-15 7.448888739433602
vertex 12.0 4.229949723821846e-15 9.999999999999998
vertex 9.249999999999998 4.229949723821846e-15 7.299038105676658
endloop
endfacet
facet normal 0.0 1.0 0.0
outer loop
vertex 9.249999999999998 4.229949723821846e-15 7.299038105676658
vertex 12.0 4.229949723821846e-15 9.999999999999998
vertex 9.560660171779821 4.229949723821846e-15 7.06066017177982
endloop
endfacet
facet normal 0.0 1.0 0.0
outer loop
vertex 9.560660171779821 4.229949723821846e-15 7.06066017177982
vertex 12.0 4.229949723821846e-15 9.999999999999998
vertex 9.799038105676658 4.229949723821846e-15 6.749999999999999
endloop
endfacet
facet normal 0.0 1.0 0.0
outer loop
vertex 9.799038105676658 4.229949723821846e-15 6.749999999999999
vertex 12.0 4.229949723821846e-15 9.999999999999998
vertex 9.948888739433603 4.229949723821846e-15 6.38822856765378
endloop
endfacet
facet normal 0.0 1.0 0.0
outer loop
vertex 9.948888739433603 4.229949723821846e-15 6.38822856765378
vertex 12.0 4.229949723821846e-15 9.999999999999998
vertex 10.0 4.229949723821846e-15 5.999999999999999
endloop
endfacet
facet normal 0.0 1.0 0.0
outer loop
vertex -1.1657341758564122e-16 4.229949723821846e-15 0.0
vertex 7.439339828220177 4.229949723821846e-15 4.939339828220178
vertex 12.0 4.229949723821846e-15 -1.4099832412739487e-15
endloop
endfacet
facet normal 0.0 1.0 0.0
outer loop
vertex 7.439339828220177 4.229949723821846e-15 4.939339828220178
vertex -1.1657341758564122e-16 4.229949723821846e-15 0.0
vertex 7.200961894323341 4.229949723821846e-15 5.249999999999999
endloop
endfacet
facet normal 0.0 1.0 0.0
outer loop
vertex 7.200961894323341 4.229949723821846e-15 5.249999999999999
vertex -1.1657341758564122e-16 4.229949723821846e-15 0.0
vertex 7.0511112605663975 4.229949723821846e-15 5.611771432346218
endloop
endfacet
facet normal 0.0 1.0 0.0
outer loop
vertex 7.0511112605663975 4.229949723821846e-15 5.611771432346218
vertex -1.1657341758564122e-16 4.229949723821846e-15 0.0
vertex 7.0 4.229949723821846e-15 5.999999999999999
endloop
endfacet
facet normal 0.0 1.0 0.0
outer loop
vertex 12.0 4.229949723821846e-15 -1.4099832412739487e-15
vertex 7.439339828220177 4.229949723821846e-15 4.939339828220178
vertex 7.749999999999998 4.229949723821846e-15 4.70096189432334
endloop
endfacet
facet normal 0.0 1.0 0.0
outer loop
vertex 12.0 4.229949723821846e-15 -1.4099832412739487e-15
vertex 7.749999999999998 4.229949723821846e-15 4.70096189432334
vertex 8.111771432346217 4.229949723821846e-15 4.551111260566397
endloop
endfacet
facet normal 0.0 1.0 0.0
outer loop
vertex 12.0 4.229949723821846e-15 -1.4099832412739487e-15
vertex 8.111771432346217 4.229949723821846e-15 4.551111260566397
vertex 8.499999999999998 4.229949723821846e-15 4.499999999999999
endloop
endfacet
facet normal 0.0 1.0 0.0
outer loop
vertex 12.0 4.229949723821846e-15 -1.4099832412739487e-15
vertex 8.499999999999998 4.229949723821846e-15 4.499999999999999
vertex 8.88822856765378 4.229949723821846e-15 4.551111260566397
endloop
endfacet
facet normal 0.0 1.0 0.0
outer loop
vertex 12.0 4.229949723821846e-15 -1.4099832412739487e-15
vertex 8.88822856765378 4.229949723821846e-15 4.551111260566397
vertex 9.249999999999998 4.229949723821846e-15 4.700961894323341
endloop
endfacet
facet normal 0.0 1.0 0.0
outer loop
vertex 12.0 4.229949723821846e-15 -1.4099832412739487e-15
vertex 9.249999999999998 4.229949723821846e-15 4.700961894323341
vertex 9.56066017177982 4.229949723821846e-15 4.939339828220178
endloop
endfacet
facet normal 0.0 1.0 0.0
outer loop
vertex 12.0 4.229949723821846e-15 -1.4099832412739487e-15
vertex 9.56066017177982 4.229949723821846e-15 4.939339828220178
vertex 9.799038105676656 4.229949723821846e-15 5.249999999999999
endloop
endfacet
facet normal 0.0 1.0 0.0
outer loop
vertex 12.0 4.229949723821846e-15 -1.4099832412739487e-15
vertex 9.799038105676656 4.229949723821846e-15 5.249999999999999
vertex 9.948888739433603 4.229949723821846e-15 5.611771432346218
endloop
endfacet
facet normal 0.0 1.0 0.0
outer loop
vertex 12.0 4.229949723821846e-15 -1.4099832412739487e-15
vertex 9.948888739433603 4.229949723821846e-15 5.611771432346218
vertex 10.0 4.229949723821846e-15 5.999999999999999
endloop
endfacet
facet normal 0.0 1.0 0.0
outer loop
vertex 12.0 4.229949723821846e-15 -1.4099832412739487e-15
vertex 10.0 4.229949723821846e-15 5.999999999999999
vertex 12.0 4.229949723821846e-15 9.999999999999998
endloop
endfacet
facet normal 0.0 -1.0 -0.0
outer loop
vertex 4.999999999999999 -11.999999999999996 -1.4099832412739487e-15
vertex 1.4099832412739487e-15 -11.999999999999996 10.0
vertex -1.1657341758564122e-16 -11.999999999999996 0.0
endloop
endfacet
facet normal 0.0 -1.0 -0.0
outer loop
vertex 1.4099832412739487e-15 -11.999999999999996 10.0
vertex 4.999999999999999 -11.999999999999996 -1.4099832412739487e-15
vertex 5.000000000000001 -11.999999999999996 9.999999999999998
endloop
endfacet
facet normal 0.0 -1.0 -0.0
outer loop
vertex 5.000000000000001 -11.999999999999996 9.999999999999998
vertex 4.999999999999999 -11.999999999999996 -1.4099832412739487e-15
vertex 4.999999999999999 -11.999999999999996 1.9999999999999978
endloop
endfacet
facet normal -1.52655665885959e-16 0.0 -1.0
outer loop
vertex -1.1657341758564122e-16 4.229949723821846e-15 0.0
vertex 4.999999999999999 -11.999999999999996 -1.4099832412739487e-15
vertex -1.1657341758564122e-16 -11.999999999999996 0.0
endloop
endfacet
facet normal -1.52655665885959e-16 0.0 -1.0
outer loop
vertex 4.999999999999999 -11.999999999999996 -1.4099832412739487e-15
vertex -1.1657341758564122e-16 4.229949723821846e-15 0.0
vertex 12.0 -4.999999999999995 -1.4099832412739487e-15
endloop
endfacet
facet normal -1.52655665885959e-16 0.0 -1.0
outer loop
vertex 12.0 -4.999999999999995 -1.4099832412739487e-15
vertex -1.1657341758564122e-16 4.229949723821846e-15 0.0
vertex 12.0 4.229949723821846e-15 -1.4099832412739487e-15
endloop
endfacet
facet normal -7.632783294297956e-17 -0.8660254037844384 -0.5000000000000004
outer loop
vertex 5.0 -7.200961894323338 6.749999999999999
vertex 3.7812428450797745e-15 -7.439339828220175 7.060660171779821
vertex 3.73381880969248e-15 -7.200961894323338 6.75
endloop
endfacet
facet normal -1.0794385653450945e-16 -0.707106781186548 -0.707106781186547
outer loop
vertex 3.7812428450797745e-15 -7.439339828220175 7.060660171779821
vertex 5.0 -7.200961894323338 6.749999999999999
vertex 5.0 -7.439339828220175 7.06066017177982
endloop
endfacet
facet normal -3.9510193674093495e-17 -0.9659258262890681 -0.2588190451025216
outer loop
vertex 5.0 -7.051111260566393 6.3882285676537816
vertex 3.73381880969248e-15 -7.200961894323338 6.75
vertex 3.6785923507891505e-15 -7.051111260566393 6.3882285676537816
endloop
endfacet
facet normal -7.632783294297956e-17 -0.8660254037844384 -0.5000000000000004
outer loop
vertex 3.73381880969248e-15 -7.200961894323338 6.75
vertex 5.0 -7.051111260566393 6.3882285676537816
vertex 5.0 -7.200961894323338 6.749999999999999
endloop
endfacet
facet normal 0.9659258262890681 0.0 0.25881904510252146
outer loop
vertex 7.0511112605663975 -4.999999999999995 5.611771432346218
vertex 7.0 4.229949723821846e-15 5.999999999999999
vertex 7.0 -4.999999999999995 5.999999999999999
endloop
endfacet
facet normal 0.9914448613738105 0.0 0.13052619222005155
outer loop
vertex 7.0 4.229949723821846e-15 5.999999999999999
vertex 7.0511112605663975 -4.999999999999995 5.611771432346218
vertex 7.0511112605663975 4.229949723821846e-15 5.611771432346218
endloop
endfacet
facet normal 7.632783294297955e-17 -0.8660254037844386 0.5000000000000003
outer loop
vertex 5.0 -7.200961894323337 5.249999999999999
vertex 3.56006176976687e-15 -7.051111260566393 5.611771432346219
vertex 3.5048353108635412e-15 -7.200961894323337 5.25
endloop
endfacet
facet normal 3.9510193674093254e-17 -0.9659258262890686 0.2588190451025201
outer loop
vertex 3.56006176976687e-15 -7.051111260566393 5.611771432346219
vertex 5.0 -7.200961894323337 5.249999999999999
vertex 5.0 -7.051111260566393 5.6117714323462184
endloop
endfacet
facet normal -1.3220368468886997e-16 -0.5000000000000004 -0.8660254037844384
outer loop
vertex 3.817632587311315e-15 -7.749999999999996 7.299038105676658
vertex 5.0 -8.111771432346215 7.448888739433602
vertex 3.8405081355909145e-15 -8.111771432346215 7.4488887394336025
endloop
endfacet
facet normal -1.474540502086029e-16 -0.25881904510252085 -0.9659258262890684
outer loop
vertex 5.0 -8.111771432346215 7.448888739433602
vertex 3.817632587311315e-15 -7.749999999999996 7.299038105676658
vertex 5.0 -7.749999999999996 7.299038105676658
endloop
endfacet
facet normal 7.632783294297965e-17 0.866025403784438 0.500000000000001
outer loop
vertex 5.0 -9.799038105676653 5.249999999999999
vertex 3.457411275476246e-15 -9.560660171779817 4.939339828220179
vertex 3.5048353108635412e-15 -9.799038105676653 5.25
endloop
endfacet
facet normal 1.0794385653450937e-16 0.7071067811865486 0.7071067811865466
outer loop
vertex 3.457411275476246e-15 -9.560660171779817 4.939339828220179
vertex 5.0 -9.799038105676653 5.249999999999999
vertex 5.0 -9.560660171779817 4.939339828220178
endloop
endfacet
facet normal -0.9914448613738105 0.0 -0.13052619222005132
outer loop
vertex 10.0 4.229949723821846e-15 5.999999999999999
vertex 9.948888739433603 -4.999999999999995 6.38822856765378
vertex 9.948888739433603 4.229949723821846e-15 6.38822856765378
endloop
endfacet
facet normal -0.9659258262890681 0.0 -0.25881904510252135
outer loop
vertex 9.948888739433603 -4.999999999999995 6.38822856765378
vertex 10.0 4.229949723821846e-15 5.999999999999999
vertex 10.0 -4.999999999999995 5.999999999999999
endloop
endfacet
facet normal -6.16033380459598e-16 0.0 -1.0
outer loop
vertex 8.5 4.229949723821846e-15 7.499999999999999
vertex 8.88822856765378 -4.999999999999995 7.448888739433602
vertex 8.5 -4.999999999999995 7.499999999999999
endloop
endfacet
facet normal -0.2588190451025204 0.0 -0.9659258262890684
outer loop
vertex 8.88822856765378 -4.999999999999995 7.448888739433602
vertex 8.5 4.229949723821846e-15 7.499999999999999
vertex 8.88822856765378 4.229949723821846e-15 7.448888739433602
endloop
endfacet
facet normal -0.7071067811865475 0.0 0.7071067811865477
outer loop
vertex 9.56066017177982 4.229949723821846e-15 4.939339828220178
vertex 9.249999999999998 -4.999999999999995 4.700961894323341
vertex 9.56066017177982 -4.999999999999995 4.939339828220178
endloop
endfacet
facet normal -0.5000000000000003 0.0 0.8660254037844385
outer loop
vertex 9.249999999999998 -4.999999999999995 4.700961894323341
vertex 9.56066017177982 4.229949723821846e-15 4.939339828220178
vertex 9.249999999999998 4.229949723821846e-15 4.700961894323341
endloop
endfacet
endsolid model
